<svg xmlns="http://www.w3.org/2000/svg" viewBox="0 0 576 512" style="background:#053eff"><path fill="#fff" d="M232 237c32-15 48-38 48-74 0-71-53-88-113-88H0v354h172c64 0 125-31 125-103C297 282 276 250 232 237L232 237zM78 136H151c28 0 53 8 53 41 0 30-20 42-47 42h-79C78 219 78 136 78 136zM161 370H78V272h85c34 0 56 14 56 51C219 358 193 370 161 370L161 370zM520 129H376V94h144V129L520 129zM576 305c0-76-44-139-125-139 -78 0-131 59-131 136 0 80 50 135 131 135 61 0 101-28 120-86H509c-7 22-34 34-56 34 -41 0-63-24-63-65h185C576 314 576 310 576 305zM390 274c2-34 25-55 59-55 35 0 53 21 56 55H390z"/></svg>