<svg xmlns="http://www.w3.org/2000/svg" width="1000" height="543" viewBox="0 9 1000 543"><path fill="#fff" d="M454 377c1 0 1 0 1 0 9 1 18 3 25 6 6 3 10 6 13 13 5 9 5 23 1 33 -3 7-11 14-18 17 -7 3-14 5-22 6 -14 2-30-1-42-8 -8-4-17-10-21-18 -3-6-3-14 1-19 7-9 21-11 32-11 8 0 23 3 31 6 2 1 10 4 11 5 1 1 2 2 1 4 -2 5-15 8-19 9 -10 2-15-2-27-7 -3-1-7-2-10-3 -5 0-12 1-13 7 0 3 3 6 6 7 6 3 11 4 17 4 18 0 38-3 53-13 2-1 4-4 4-6 0-5-9-9-9-9 -10-4-28-6-38-7 -10-1-26-2-29-3 -4-1-8-1-11-3 -3-2-7-5-8-9 -2-7 0-15 4-20 10-14 33-20 50-22 17-2 44-2 60 7 3 1 4 3 3 5 -1 5-5 8-10 10 -5 2-15 2-19 2 -20 1-44 1-62 6 -1 0-4 1-5 2 -3 3 5 4 7 4 1 0 1 0 1 0L454 377M336 289c0 0 3-5 6-8 5-7 14-16 20-22 2-2 4-4 4-4s-4 0-6 1c-5 1-13 6-16 9 -6 5-13 14-10 21C336 288 336 289 336 289M370 298c10-1 19-3 27-8 8-5 20-14 19-24 0-3-3-6-5-7 -4-2-6-1-10 0 -3 1-5 2-8 3 -10 6-23 17-30 27 -2 2-3 5-5 6 -1 1-1 2-1 2C357 299 367 299 370 298M346 316c-1 1-2 4-3 5 -1 1-2 2-2 3 -3 2-5 2-7 0 -3-3-5-8-6-12 0-2 0-4 0-6 -1-3-3-6-5-8 -2-3-3-9-3-12 -1-11 5-21 13-30 8-8 18-15 29-20 10-4 26-7 37-3 4 1 9 4 11 8 1 1 1 1 2 2 1 0 2 0 3 1 4 1 9 3 11 5 4 4 7 7 8 12 2 10-4 22-11 29 -12 12-23 20-38 26 -7 3-17 5-24 4 -2 0-5-1-7-1 -1 0-5-1-6-1C347 317 346 316 346 316M359 339c0 0 1 0 2 1 5 2 7 7 9 12 3 12 4 39 5 50 0 8 1 16 1 24 0 7 1 16-1 22 -1 2-2 5-4 6 -2 2-8 2-11 1 -8-2-10-6-11-14 -3-18-1-53 0-68 1-5 2-21 5-27C354 343 356 339 359 339M128 369c0 0-11 1-19 2 -10 1-29 4-39 8 -3 1-10 4-10 7 -1 3 2 6 4 9 1 2 9 9 11 11 9 8 28 19 41 25 5 2 12 5 12 5s-1-22 0-44C128 380 128 369 128 369M335 378c1 6-1 17-1 19 0 3-3 11-3 12 -2 5-4 9-6 13 -4 7-13 17-18 22 -19 17-50 26-75 30 -18 2-38 2-56-2 -6-1-16-3-16-3s0 4 0 6c0 1-1 4-2 5 -1 3-4 4-7 5 -4 1-8 1-12-1 -6-2-8-8-9-14 -1-5-2-14-2-14s-4-2-8-4c-11-6-22-12-31-19 -3-2-14-11-16-14 -7-7-13-13-18-22 -4-7-5-12-2-19 4-10 18-17 27-21 7-3 29-10 38-11 4-1 11-2 11-2 0 0 0 0 0 0 0 0 1-10 0-13 0-3 3-26 3-31 0-3 2-13 4-15 1-2 4-2 6 0 10 6 13 29 14 40 0 7 1 17 1 17s12 0 19 0c7 0 15 1 22 2 9 2 28 6 38 11 9 4 17 12 19 20 2 7 2 12-2 19 -4 7-12 13-20 13 -2 0-11-1-14-3 -1-1-1-2 0-3 0 0 5-3 7-4 1-1 2-1 3-2 2-2 4-4 4-6 0-3-4-5-7-6 -14-6-43-10-57-11 -5 0-13-1-13-1l2 77c0 0 6 1 11 2 3 0 15 2 18 2 25 1 52-2 75-12 10-5 19-11 26-18 9-10 14-25 13-40 -1-16-13-36-22-48 -24-31-66-57-103-72 -37-15-74-24-114-26 -10 0-33 0-44 3 -2 0-3 1-5 1 -1 0-3 1-4 1 0 0-1 1-1 1s1 0 1 1c1 1 6 1 9 1 2 0 5 2 6 3 1 2 1 3 0 4 -3 3-12 3-16 2 -4-1-10-2-11-6 -1-5 1-9 3-13 5-8 11-12 21-15 14-4 31-6 44-7 30-1 58 4 86 13 16 5 38 13 54 21 11 5 29 15 39 22 3 2 22 16 24 18 6 5 14 12 19 18 11 11 25 27 31 41 2 3 3 6 5 10 1 1 4 9 4 11 0 2 1 5 1 5C334 369 335 375 335 378M708 361c-14 3-50 5-50 5l-5 14c0 0 18-2 31 0 0 0 4 0 5 5 0 5 0 10 0 10s0 3-5 4c-5 1-39 2-39 2l-6 19c0 0-2 4 3 3 4-1 40-8 45-7 5 1 11 8 9 14 -2 8-38 30-60 29 0 0-11 1-21-15 -9-15 3-43 3-43s-6-13-2-17c0 0 2-2 10-3l9-18c0 0-10 1-16-7 -6-7-6-10-2-12 5-2 46-10 75-9 0 0 10-1 19 16C710 352 715 359 708 361M600 431c-4 9-13 18-25 12 -12-6-31-45-31-45s-7-14-9-14c0 0-2-3-3 13 -1 16 0 46-6 51 -6 5-13 3-17-3 -3-6-5-19-3-42 2-23 8-48 15-56 7-8 12-2 15 0 0 0 9 8 25 33l3 5c0 0 14 23 15 23 0 0 1 1 2 0 1 0 1-8 1-8s-3-25-16-68c0 0-2-5-1-10 1-5 6-3 6-3s20 10 29 42C610 393 603 422 600 431M811 412c-9 16-34 48-68 40 -11 27-20 54-26 94 0 0-1 8-8 5 -6-2-17-13-19-28 -2-20 6-53 24-91 -5-8-9-21-6-38 0 0 4-32 37-61 0 0 4-3 6-2 2 1 1 11-1 16 -2 5-16 30-16 30s-9 17-6 30c17-26 55-78 79-62 8 6 12 18 12 31C819 390 816 402 811 412M804 371c0 0-1-10-11 1 -9 10-24 28-37 52 13-1 26-9 30-12C791 406 806 391 804 371M995 368H934c-1-21-4-41-8-62 0-2-2-4-4-4h-14c-1 0-2 1-3 2 -1 1-1 2-1 3 4 20 7 40 8 61h-59c-3 0-5 2-5 5v13c0 3 2 5 5 5h60c0 3 0 6 0 9 0 18-1 34-3 51 0 1 0 3 1 4 1 1 2 2 3 2h13c3 0 5-2 5-4 2-17 3-33 3-51 0-3 0-5 0-9h61c3 0 5-2 5-5V373C1000 371 998 368 995 368"/><linearGradient x1="931" x2="189" y1="184" y2="84" gradientUnits="userSpaceOnUse"><stop offset="0" stop-color="#fff"/><stop offset=".236" stop-color="#fff"/><stop offset=".497" stop-color="#fff"/><stop offset=".655" stop-color="#fff"/><stop offset="1" stop-color="#fff"/></linearGradient><path fill="url(#SVGID_1_)" d="M175 197c-1 1-1 3-1 4 1 1 2 3 3 3l11 4c1 0 1 0 2 0 2 0 4-1 5-3 36-53 85-97 141-127 58-31 124-48 190-48 80 0 158 24 224 68 65 44 115 105 145 176 1 2 3 4 5 4h13c2 0 3-1 4-2 1-1 1-3 0-4 -31-77-84-143-153-190C695 35 612 9 526 9 385 9 253 80 175 197"/></svg>