<svg xmlns="http://www.w3.org/2000/svg" width="79" height="79" viewBox="0 0 79 79"><path fill="#FFF" d="M55 1l2 0c1 0 2 0 2 0 2 0 3 0 5 0 2 0 3 1 5 2 1 1 3 2 4 3 1 1 2 2 3 4 1 1 1 3 2 5 0 2 0 4 0 5 0 1 0 2 0 2 0 1 0 2 0 3v0 30 0c0 1 0 2 0 3 0 1 0 2 0 2 0 2 0 3 0 5 0 2-1 3-2 5 -1 1-2 3-3 4 -1 1-2 2-4 3 -1 1-3 1-5 2 -2 0-4 0-5 0 -1 0-2 0-2 0l-2 0h0H25h0l-2 0c-1 0-2 0-2 0 -2 0-3 0-5 0 -2 0-3-1-5-2 -1-1-3-2-4-3 -1-1-2-2-3-4 -1-1-1-3-2-5 0-2 0-4 0-5 0-1 0-2 0-2 0-1 0-2 0-3v0V25v0c0-1 0-2 0-3 0-1 0-2 0-2 0-2 0-3 0-5 0-2 1-3 2-5C4 8 5 7 6 6c1-1 2-2 4-3 1-1 3-1 5-2 2 0 4 0 5 0 1 0 2 0 2 0L24 1h0 30H55"/><linearGradient id="SVGID_1_" x1="40" x2="40" y1="64" y2="15" gradientUnits="userSpaceOnUse"><stop offset="0" stop-color="#13A"/><stop offset="1" stop-color="#F56"/></linearGradient><path fill="url(#SVGID_1_)" d="M15 43v15l0 2c0 0 0 0 0 1 0 0 0 0 0 0 0 0 0 1 0 1 0 0 0 1 0 1 0 0 0 1 1 1 0 0 1 0 1 1 0 0 1 0 1 0 0 0 1 0 1 0 0 0 0 0 0 0 0 0 0 0 1 0l2 0h15c0 0 1-1 0-1 -9-5-16-12-21-21 0 0 0 0 0 0C15 42 15 42 15 43M20 15c0 0 0 0-1 0 0 0 0 0 0 0 0 0-1 0-1 0 0 0-1 0-1 0 0 0-1 0-1 1 0 0 0 1-1 1 0 0 0 1 0 1 0 0 0 1 0 1 0 0 0 0 0 0 0 0 0 0 0 0v0 6c0 1 0 2 1 3l35 35c1 1 2 1 3 1h6c0 0 0 0 1 0 0 0 0 0 0 0 0 0 1 0 1 0 0 0 1 0 1 0 0 0 1 0 1-1 0 0 0-1 1-1 0 0 0-1 0-1 0 0 0-1 0-1 0 0 0 0 0 0 0 0 0 0 0 0V54c0-1 0-2-1-3l-35-35c-1-1-2-1-3-1H20M43 15c0 0-1 1 0 1 9 5 16 12 21 21 0 0 1 0 1 0V22l0-2c0 0 0 0 0-1 0 0 0 0 0 0 0 0 0-1 0-1 0 0 0-1 0-1 0 0 0-1-1-1 0 0-1 0-1-1 0 0-1 0-1 0 0 0-1 0-1 0 0 0 0 0 0 0 0 0 0 0-1 0l-2 0H43"/></svg>