<svg xmlns="http://www.w3.org/2000/svg" xmlns:cc="http://web.resource.org/cc/" xmlns:svg="http://www.w3.org/2000/svg" id="svg3304" width="48" height="48"><metadata id="metadata3309"/><g id="layer1"><path style="fill:#fff;fill-opacity:1;fill-rule:evenodd;stroke:none;stroke-width:1px;stroke-linecap:butt;stroke-linejoin:miter;stroke-opacity:1" id="path3312" d="M 48.000000 24.000000 A 24.000000 24.000000 0 1 1 0.0000000,24.000000 A 24.000000 24.000000 0 1 1 48.000000 24.000000 z"/><path style="fill:#000;fill-opacity:1;fill-rule:evenodd;stroke:none;stroke-width:1px;stroke-linecap:butt;stroke-linejoin:miter;stroke-opacity:1" id="path4048" d="M 44.000000 24.000000 A 20.000000 20.000000 0 1 1 4.0000000,24.000000 A 20.000000 20.000000 0 1 1 44.000000 24.000000 z"/><path style="fill:#fff;fill-opacity:1;fill-rule:evenodd;stroke:none;stroke-width:1px;stroke-linecap:butt;stroke-linejoin:miter;stroke-opacity:1" id="path4784" d="M 40.000000 24.000000 A 16.000000 16.000000 0 1 1 8.0000000,24.000000 A 16.000000 16.000000 0 1 1 40.000000 24.000000 z"/><path style="fill:none;fill-opacity:.75;fill-rule:evenodd;stroke:#000;stroke-width:4;stroke-linecap:round;stroke-linejoin:miter;stroke-miterlimit:4;stroke-dasharray:none;stroke-opacity:1" id="path5512" d="M 10.000000,34.250000 C 18.000000,31.250000 30.000000,31.250000 38.000000,34.250000"/><path style="fill:none;fill-opacity:.75;fill-rule:evenodd;stroke:#000;stroke-width:4;stroke-linecap:butt;stroke-linejoin:miter;stroke-miterlimit:4;stroke-dasharray:none;stroke-opacity:1" id="path5516" d="M 7.9685040,24.000000 L 40.031496,24.000000"/><path style="fill:none;fill-opacity:.75;fill-rule:evenodd;stroke:#000;stroke-width:4;stroke-linecap:round;stroke-linejoin:miter;stroke-miterlimit:4;stroke-dasharray:none;stroke-opacity:1" id="path5520" d="M 20.000000,7.5511811 C 15.000000,18.000000 15.000000,31.000000 20.000000,41.000000"/><path id="path6250" d="M 10.000000,13.750000 C 18.000000,16.750000 30.000000,16.750000 38.000000,13.750000" style="fill:none;fill-opacity:.75;fill-rule:evenodd;stroke:#000;stroke-width:4;stroke-linecap:round;stroke-linejoin:miter;stroke-miterlimit:4;stroke-dasharray:none;stroke-opacity:1"/><path id="path9156" d="M 28.000000,7.5511811 C 33.000000,18.000000 33.000000,31.000000 28.000000,41.000000" style="fill:none;fill-opacity:.75;fill-rule:evenodd;stroke:#000;stroke-width:4;stroke-linecap:round;stroke-linejoin:miter;stroke-miterlimit:4;stroke-dasharray:none;stroke-opacity:1"/></g></svg>