<svg xmlns="http://www.w3.org/2000/svg" width="200" height="183" viewBox="0 0 200 183" xml:space="preserve"><path style="fill:#ff9804;fill-opacity:1;fill-rule:nonzero;stroke:none" d="m 90.310891,181.67509 c -0.728681,-0.0714 -3.038913,-0.2885 -5.133854,-0.48245 -30.214926,-2.79725 -59.301276,-15.34728 -81.5619904,-35.19198 -2.57621,-2.2966 -3.06998004,-3.23869 -2.1694666,-4.13921 0.7284371,-0.72843 1.6652728,-0.41532 6.2009742,2.07246 30.2472908,16.59039 66.2877298,25.03204 101.0468258,23.66796 7.41429,-0.29097 7.61531,-0.30643 14.90473,-1.14608 16.3525,-1.8836 32.74723,-5.99766 48.6385,-12.20525 5.33813,-2.08523 6.63474,-2.25761 7.84891,-1.04342 1.6442,1.64418 0.99875,2.95241 -2.75311,5.58019 -16.35276,11.45334 -39.30064,19.55398 -63.17396,22.30051 -4.04183,0.465 -20.866826,0.87933 -23.847559,0.58727 l 0,0 z"/><path style="fill:#ff9804;fill-opacity:1;fill-rule:nonzero;stroke:none" d="m 183.15177,173.52671 c -0.57647,-0.57647 -0.54387,-0.72217 1.08506,-4.85059 3.28163,-8.31702 5.14082,-15.04259 5.14082,-18.59674 0,-2.55897 -0.93499,-3.74203 -3.58924,-4.54157 -2.59276,-0.781 -12.06684,-0.69523 -18.43663,0.16692 -4.40334,0.59598 -5.7963,0.53533 -5.7963,-0.25238 0,-1.52846 6.39858,-5.11513 11.50946,-6.45153 6.42917,-1.68112 15.48848,-1.82941 21.11534,-0.34567 3.65737,0.9644 4.14022,1.64573 4.14022,5.84213 0,4.91978 -1.8858,12.00895 -4.69622,17.65434 -3.42639,6.88268 -8.9573,12.89029 -10.47251,11.37509 z"/><path style="fill:#eee;fill-opacity:1;fill-rule:nonzero;stroke:none" d="M 80.177618,122.42388 C 72.794465,121.0846 66.363822,117.4327 62.126279,112.17272 54.117796,102.23191 53.037778,84.52181 59.678744,72.03808 c 3.79171,-7.127658 9.346302,-12.092035 17.83058,-15.935954 7.788396,-3.528625 17.096565,-5.545462 31.714006,-6.871571 3.18795,-0.289221 6.44509,-0.607588 7.23807,-0.707492 l 1.44179,-0.181626 -0.14209,-6.516113 c -0.1231,-5.645312 -0.24099,-6.80382 -0.88214,-8.669014 -1.37687,-4.005538 -3.66934,-6.311669 -7.97068,-8.018174 -2.49834,-0.991192 -8.54187,-1.064421 -11.277516,-0.136649 -4.273014,1.449169 -7.616379,3.916396 -9.655998,7.125609 -0.533434,0.839321 -1.353988,2.755654 -1.823459,4.258521 -0.658454,2.107824 -1.112306,2.959646 -1.985347,3.726183 -0.622463,0.546533 -1.387408,0.99333 -1.699859,0.992877 -0.312461,-3.31e-4 -5.1286,-0.581069 -10.702544,-1.290265 -10.594308,-1.347958 -11.934372,-1.688408 -12.626684,-3.207876 -0.45883,-1.007013 0.06427,-3.96543 1.40059,-7.921645 5.03443,-14.904273 18.269344,-24.1459454 37.744215,-26.3560331 4.773182,-0.5416802 13.736202,-0.2250783 18.394022,0.649736 11.20791,2.1050293 20.26892,6.9994011 24.80812,13.4002991 2.65123,3.7386 3.8267,6.565539 5.05372,12.154004 0.46754,2.129408 0.5729,6.311869 0.76299,30.292671 0.21366,26.95348 0.24242,27.901124 0.9214,30.351204 0.94045,3.393611 2.62541,6.645932 5.17275,9.984525 2.6613,3.487943 2.86136,3.873233 2.86136,5.510703 0,1.60324 -0.23131,1.87035 -5.79629,6.69355 -12.35427,10.70755 -12.16032,10.56202 -14.03856,10.5334 -0.84073,-0.0128 -1.79607,-0.12886 -2.12298,-0.25791 -1.26756,-0.50039 -7.05318,-6.6605 -9.59944,-10.22079 -1.47126,-2.05716 -2.76048,-3.73601 -2.86493,-3.73074 -0.10445,0.005 -1.82942,1.51778 -3.83328,3.36117 -7.99863,7.35811 -13.62888,10.15214 -22.908837,11.36866 -4.553013,0.59684 -11.636948,0.59899 -14.914105,0.004 l 0,1e-5 z m 23.744752,-21.12152 c 4.20727,-1.561766 7.55189,-4.647414 10.07131,-9.291484 3.06818,-5.655629 3.83547,-9.641982 3.83894,-19.945028 l 0.002,-6.963903 -3.56057,0.09722 c -12.80777,0.349766 -20.675513,3.425486 -25.064804,9.798542 -2.054002,2.982315 -2.890787,5.756031 -3.089705,10.24152 -0.200908,4.530234 0.217556,7.083387 1.642271,10.020106 2.919617,6.018097 9.549056,8.497137 16.160208,6.043007 l 2e-5,0 z"/></svg>