<svg xmlns="http://www.w3.org/2000/svg" xmlns:svg="http://www.w3.org/2000/svg" xmlns:xlink="http://www.w3.org/1999/xlink" id="svg2" width="434.446" height="434.446" version="1.1" viewBox="0 0 407.293 407.293"><defs id="defs4"><linearGradient id="linearGradient5625"><stop style="stop-color:#000;stop-opacity:1" id="stop5627" offset="0"/><stop style="stop-color:#000;stop-opacity:0" id="stop5629" offset="1"/></linearGradient><radialGradient id="radialGradient5631" cx="367.992" cy="280.366" r="368.717" fx="367.992" fy="280.366" gradientTransform="matrix(0.30406823,-0.10528244,3.8564095,11.137765,-825.1108,-2803.5461)" gradientUnits="userSpaceOnUse" xlink:href="#linearGradient5625"/><radialGradient id="radialGradient5757" cx="367.992" cy="280.366" r="368.717" fx="367.992" fy="280.366" gradientTransform="matrix(0.30406823,-0.10528244,3.8564095,11.137765,-825.1108,-2803.5461)" gradientUnits="userSpaceOnUse" xlink:href="#linearGradient5625"/></defs><metadata id="metadata7"/><g id="layer1" transform="translate(12.494543,6.7556334)"><g id="g4182"><rect id="rect4180" width="407.293" height="407.293" x="-12.495" y="-6.756" ry="37.456" style="opacity:1;fill:#000;fill-opacity:1;fill-rule:nonzero;stroke:none;stroke-width:700;stroke-linecap:butt;stroke-linejoin:miter;stroke-miterlimit:4;stroke-dasharray:none;stroke-opacity:1"/><g id="g5747" transform="matrix(0.29074008,0,0,0.29074008,81.631476,113.77111)"><path style="fill:#b1060f;fill-opacity:1;fill-rule:evenodd;stroke:#000;stroke-width:1px;stroke-linecap:butt;stroke-linejoin:miter;stroke-opacity:1" id="path4155" d="m 451.82617,-188.60352 -0.36914,210.000004 -0.37109,209.999996 -17.27735,-48.75 c -0.006,-0.0168 -0.0273,-0.0789 -0.0332,-0.0957 l -22.32617,467.51563 c 21.95088,61.98892 33.71165,95.08081 33.84375,95.21289 0.17284,0.1729 12.68225,0.92753 27.79883,1.67773 45.79984,2.2727 102.55492,7.14269 145.60937,12.49219 9.96875,1.2385 18.54796,1.87275 19.06445,1.41016 0.5165,-0.4626 0.79775,-214.28135 0.625,-475.15235 l -0.31445,-474.31055 -93.125,0 -93.125,0 z"/><path style="fill:#b1060f;fill-opacity:1;fill-rule:evenodd;stroke:#000;stroke-width:1px;stroke-linecap:butt;stroke-linejoin:miter;stroke-opacity:1" id="path4157" d="m 114.95117,-189.22852 0,474.79102 c 0,261.1354 0.25552,475.04843 0.56836,475.36133 0.31282,0.3128 16.4847,-1.21398 35.9375,-3.39258 19.45278,-2.1787 46.33789,-4.88783 59.74414,-6.01953 20.56097,-1.7358 81.94995,-5.68286 89.0586,-5.72656 2.06786,-0.013 2.20049,-10.68157 2.5,-201.10157 l 0.3164,-201.08789 14.85352,42.02539 c 2.29551,6.49543 3.01555,8.52378 5.25195,14.85157 l 22.32031,-467.400394 c -4.72927,-13.371182 -2.25012,-6.352022 -7.66992,-21.675782 -18.23693,-51.562504 -33.71225,-95.296904 -34.39062,-97.187504 l -1.23438,-3.4375 -93.62695,0 -93.62891,0 z"/><path style="fill:url(#radialGradient5757);fill-opacity:1;fill-rule:evenodd;stroke:none;stroke-width:1px;stroke-linecap:butt;stroke-linejoin:miter;stroke-opacity:1" id="path5623" d="m 114.95117,-189.22852 0,266.513676 187.7461,498.023434 c 0.0196,-11.41266 0.042,-17.57934 0.0625,-30.625 l 0.3164,-201.08789 14.85352,42.02539 c 82.68109,233.9563 127.10203,359.39701 127.36328,359.65821 0.17284,0.1729 12.68225,0.92753 27.79883,1.67773 45.79984,2.2727 102.55492,7.14269 145.60937,12.49219 9.96875,1.2385 18.54796,1.87275 19.06445,1.41016 0.355,-0.31796 0.58674,-105.15812 0.64844,-253.0586 l -186.86718,-537.244139 -0.0899,50.839843 -0.37109,209.999996 -17.27735,-48.75 c -16.88185,-47.6341 -28.15376,-79.49 -95.97656,-271.249996 -18.23693,-51.562504 -33.71225,-95.296904 -34.39062,-97.187504 l -1.23438,-3.4375 -93.62695,0 -93.62891,0 z"/><path style="fill:#e50914;fill-opacity:1;fill-rule:evenodd;stroke:none;stroke-width:1px;stroke-linecap:butt;stroke-linejoin:miter;stroke-opacity:1" id="path4159" d="m 114.95508,-189.22852 188.12109,533.06641 0,-0.24219 14.85352,42.02539 c 82.68109,233.9563 127.10203,359.39701 127.36328,359.65821 0.17284,0.1729 12.68225,0.92753 27.79883,1.67773 45.79984,2.2727 102.55492,7.14269 145.60937,12.49219 9.91766,1.23215 18.45293,1.86506 19.04883,1.41601 l -186.66406,-529.5664 0,0.0976 -17.27735,-48.75 c -16.88185,-47.6341 -28.15376,-79.49 -95.97656,-271.249996 -18.23693,-51.562504 -33.71225,-95.296904 -34.39062,-97.187504 l -1.23438,-3.4375 -93.62695,0 -93.625,0 z"/><path id="path5715" d="m 451.82617,-188.60352 -0.36914,210.000004 -0.37109,209.999996 -17.27735,-48.75 c -0.006,-0.0168 -0.0273,-0.0789 -0.0332,-0.0957 l -22.32617,467.51563 c 21.95088,61.98892 33.71165,95.08081 33.84375,95.21289 0.17284,0.1729 12.68225,0.92753 27.79883,1.67773 45.79984,2.2727 102.55492,7.14269 145.60937,12.49219 9.96875,1.2385 18.54796,1.87275 19.06445,1.41016 0.5165,-0.4626 0.79775,-214.28135 0.625,-475.15235 l -0.31445,-474.31055 -93.125,0 -93.125,0 z" style="fill:#b1060f;fill-opacity:1;fill-rule:evenodd;stroke:#000;stroke-width:1px;stroke-linecap:butt;stroke-linejoin:miter;stroke-opacity:1"/><path id="path5717" d="m 114.95117,-189.22852 0,474.79102 c 0,261.1354 0.25552,475.04843 0.56836,475.36133 0.31282,0.3128 16.4847,-1.21398 35.9375,-3.39258 19.45278,-2.1787 46.33789,-4.88783 59.74414,-6.01953 20.56097,-1.7358 81.94995,-5.68286 89.0586,-5.72656 2.06786,-0.013 2.20049,-10.68157 2.5,-201.10157 l 0.3164,-201.08789 14.85352,42.02539 c 2.29551,6.49543 3.01555,8.52378 5.25195,14.85157 l 22.32031,-467.400394 c -4.72927,-13.371182 -2.25012,-6.352022 -7.66992,-21.675782 -18.23693,-51.562504 -33.71225,-95.296904 -34.39062,-97.187504 l -1.23438,-3.4375 -93.62695,0 -93.62891,0 z" style="fill:#b1060f;fill-opacity:1;fill-rule:evenodd;stroke:#000;stroke-width:1px;stroke-linecap:butt;stroke-linejoin:miter;stroke-opacity:1"/><path id="path5719" d="m 114.95117,-189.22852 0,266.513676 187.7461,498.023434 c 0.0196,-11.41266 0.042,-17.57934 0.0625,-30.625 l 0.3164,-201.08789 14.85352,42.02539 c 82.68109,233.9563 127.10203,359.39701 127.36328,359.65821 0.17284,0.1729 12.68225,0.92753 27.79883,1.67773 45.79984,2.2727 102.55492,7.14269 145.60937,12.49219 9.96875,1.2385 18.54796,1.87275 19.06445,1.41016 0.355,-0.31796 0.58674,-105.15812 0.64844,-253.0586 l -186.86718,-537.244139 -0.0899,50.839843 -0.37109,209.999996 -17.27735,-48.75 c -16.88185,-47.6341 -28.15376,-79.49 -95.97656,-271.249996 -18.23693,-51.562504 -33.71225,-95.296904 -34.39062,-97.187504 l -1.23438,-3.4375 -93.62695,0 -93.62891,0 z" style="fill:url(#radialGradient5631);fill-opacity:1;fill-rule:evenodd;stroke:none;stroke-width:1px;stroke-linecap:butt;stroke-linejoin:miter;stroke-opacity:1"/><path id="path5721" d="m 114.95508,-189.22852 188.12109,533.06641 0,-0.24219 14.85352,42.02539 c 82.68109,233.9563 127.10203,359.39701 127.36328,359.65821 0.17284,0.1729 12.68225,0.92753 27.79883,1.67773 45.79984,2.2727 102.55492,7.14269 145.60937,12.49219 9.91766,1.23215 18.45293,1.86506 19.04883,1.41601 l -186.66406,-529.5664 0,0.0976 -17.27735,-48.75 c -16.88185,-47.6341 -28.15376,-79.49 -95.97656,-271.249996 -18.23693,-51.562504 -33.71225,-95.296904 -34.39062,-97.187504 l -1.23438,-3.4375 -93.62695,0 -93.625,0 z" style="fill:#e50914;fill-opacity:1;fill-rule:evenodd;stroke:none;stroke-width:1px;stroke-linecap:butt;stroke-linejoin:miter;stroke-opacity:1"/></g></g></g></svg>