<svg xmlns="http://www.w3.org/2000/svg" width="1024" height="1024" viewBox="0 0 600 600"><path fill="#fff" d="M2175 5384 c-211 -22 -379 -59 -544 -121 -268 -100 -510 -261 -721 -479 -271 -280 -427 -580 -515 -992 -36 -164 -36 -171 -36 -387 0 -208 2 -228 31 -360 78 -355 186 -597 379 -845 246 -316 557 -537 946 -670 61 -21 103 -40 95 -42 -94 -28 -239 -79 -293 -105 -158 -76 -370 -239 -488 -374 -100 -115 -239 -313 -239 -341 0 -4 39 21 86 56 107 79 373 214 514 260 228 75 431 106 699 106 205 0 337 -13 549 -56 254 -50 421 -102 772 -239 364 -143 572 -182 900 -172 412 13 733 135 1075 412 108 87 175 156 281 290 97 121 103 131 77 117 -11 -6 -26 -18 -33 -27 -40 -49 -212 -166 -328 -224 -250 -125 -505 -182 -817 -182 -315 1 -605 63 -930 201 -337 143 -484 197 -668 244 -121 31 -160 46 -125 46 36 0 211 66 335 126 457 220 810 600 991 1064 53 138 98 314 118 464 24 180 14 477 -21 645 -94 448 -320 834 -658 1119 -289 244 -598 388 -957 447 -93 15 -396 27 -475 19z m429 -605 c256 -51 488 -180 697 -389 124 -123 188 -207 262 -343 146 -268 191 -594 127 -921 -79 -408 -400 -807 -787 -979 -173 -77 -319 -113 -501 -123 -541 -31 -1045 260 -1304 753 -105 200 -147 380 -148 628 0 338 80 581 281 850 311 416 861 625 1373 524z" transform="translate(0,600) scale(0.1,-0.1)"/></svg>